STARTFONT 2.1
COMMENT $XConsortium: lubB19.bdf,v 1.3 94/04/02 16:00:31 gildea Exp $
COMMENT  (c) Copyright Bigelow & Holmes 1986, 1985. Lucida is a registered
COMMENT  trademark of Bigelow & Holmes. See LEGAL NOTICE file for terms 
COMMENT  of the license. 
COMMENT  
COMMENT  Translation to ISO8859-2 by Cub Soft;  Petr.Kolar@vslib.cz
COMMENT  
FONT -B&H-LucidaBright-DemiBold-R-Normal--19-190-75-75-P-114-ISO8859-2
SIZE 19 72 72
FONTBOUNDINGBOX 34 22 -11 -4
STARTPROPERTIES 20
COMMENT Begin LogicalFontDescription
FONTNAME_REGISTRY ""
FOUNDRY "B&H"
FAMILY_NAME "LucidaBright"
WEIGHT_NAME "DemiBold"
SLANT "R"
SETWIDTH_NAME "Normal"
ADD_STYLE_NAME ""
PIXEL_SIZE 19
POINT_SIZE 190
RESOLUTION_X 100
RESOLUTION_Y 100
SPACING "P"
AVERAGE_WIDTH "114"
CHARSET_REGISTRY "ISO8859"
CHARSET_ENCODING "2"
COMMENT END LogicalFontDescription
COPYRIGHT "Copyright Bigelow & Holmes 1986, 1985., Copyright 1996 Cub Soft"
FONT_ASCENT 17
FONT_DESCENT 4
DEFAULT_CHAR 0
FACE_NAME "Lucida Bright Demibold"
ENDPROPERTIES
CHARS 191
STARTCHAR space
ENCODING 32
SWIDTH 333 0
DWIDTH 6 0
BBX 1 1 0 0
BITMAP
00
ENDCHAR
STARTCHAR exclam
ENCODING 33
SWIDTH 265 0
DWIDTH 5 0
BBX 3 14 1 0
BITMAP
e0
e0
e0
e0
e0
e0
40
40
40
40
00
e0
e0
e0
ENDCHAR
STARTCHAR quotedbl
ENCODING 34
SWIDTH 461 0
DWIDTH 9 0
BBX 7 5 1 9
BITMAP
ee
ee
ee
44
44
ENDCHAR
STARTCHAR numbersign
ENCODING 35
SWIDTH 663 0
DWIDTH 13 0
BBX 12 14 0 0
BITMAP
0440
0440
0440
0880
7ff0
0880
0880
1100
1100
ffe0
1100
2200
2200
2200
ENDCHAR
STARTCHAR dollar
ENCODING 36
SWIDTH 623 0
DWIDTH 12 0
BBX 8 18 2 -2
BITMAP
08
08
7f
79
e9
e8
e8
78
3c
1e
0f
0f
0f
8f
cf
fe
08
08
ENDCHAR
STARTCHAR percent
ENCODING 37
SWIDTH 759 0
DWIDTH 14 0
BBX 15 14 0 0
BITMAP
3806
4408
c610
c620
c640
44c0
3980
0338
0644
04c6
08c6
10c6
2044
c038
ENDCHAR
STARTCHAR ampersand
ENCODING 38
SWIDTH 765 0
DWIDTH 15 0
BBX 14 14 0 0
BITMAP
0f00
39c0
39c0
39c0
1f80
0f00
3c7c
6618
e718
e390
e3f0
f1e0
70f0
1f7c
ENDCHAR
STARTCHAR apostrophe
ENCODING 39
SWIDTH 265 0
DWIDTH 5 0
BBX 3 5 1 9
BITMAP
e0
e0
60
60
c0
ENDCHAR
STARTCHAR parenleft
ENCODING 40
SWIDTH 327 0
DWIDTH 6 0
BBX 5 18 1 -4
BITMAP
08
18
30
30
60
60
e0
e0
e0
e0
e0
e0
60
60
30
30
10
08
ENDCHAR
STARTCHAR parenright
ENCODING 41
SWIDTH 327 0
DWIDTH 6 0
BBX 5 18 1 -4
BITMAP
80
c0
60
60
30
30
38
38
38
38
38
38
30
30
60
60
40
80
ENDCHAR
STARTCHAR asterisk
ENCODING 42
SWIDTH 434 0
DWIDTH 8 0
BBX 7 7 1 7
BITMAP
10
52
d6
6c
28
6c
28
ENDCHAR
STARTCHAR plus
ENCODING 43
SWIDTH 623 0
DWIDTH 12 0
BBX 11 12 0 0
BITMAP
0400
0400
0400
0400
0400
0400
ffe0
0400
0400
0400
0400
0400
ENDCHAR
STARTCHAR comma
ENCODING 44
SWIDTH 265 0
DWIDTH 5 0
BBX 3 7 1 -4
BITMAP
e0
e0
e0
60
60
60
c0
ENDCHAR
STARTCHAR minus
ENCODING 45
SWIDTH 623 0
DWIDTH 12 0
BBX 11 1 0 5
BITMAP
ffe0
ENDCHAR
STARTCHAR period
ENCODING 46
SWIDTH 265 0
DWIDTH 5 0
BBX 3 3 1 0
BITMAP
e0
e0
e0
ENDCHAR
STARTCHAR slash
ENCODING 47
SWIDTH 527 0
DWIDTH 10 0
BBX 10 18 0 -4
BITMAP
00c0
0080
0080
0100
0100
0200
0200
0400
0400
0800
0800
1000
1000
2000
2000
4000
4000
c000
ENDCHAR
STARTCHAR zero
ENCODING 48
SWIDTH 623 0
DWIDTH 12 0
BBX 11 14 0 0
BITMAP
1f00
3180
71c0
60c0
e0e0
e0e0
e0e0
e0e0
e0e0
e0e0
60c0
71c0
3180
1f00
ENDCHAR
STARTCHAR one
ENCODING 49
SWIDTH 623 0
DWIDTH 12 0
BBX 7 14 3 0
BITMAP
f8
38
38
38
38
38
38
38
38
38
38
38
38
fe
ENDCHAR
STARTCHAR two
ENCODING 50
SWIDTH 623 0
DWIDTH 12 0
BBX 9 14 1 0
BITMAP
7e00
c700
8380
0380
0380
0300
0700
0c00
1800
2000
6000
7f80
ff80
ff80
ENDCHAR
STARTCHAR three
ENCODING 51
SWIDTH 623 0
DWIDTH 12 0
BBX 9 14 1 0
BITMAP
fe00
c700
8380
0380
0380
0700
7c00
0f00
0380
0380
0380
8380
8700
fc00
ENDCHAR
STARTCHAR four
ENCODING 52
SWIDTH 623 0
DWIDTH 12 0
BBX 12 14 0 0
BITMAP
01c0
03c0
07c0
0dc0
19c0
11c0
21c0
41c0
fff0
fff0
01c0
01c0
01c0
03f0
ENDCHAR
STARTCHAR five
ENCODING 53
SWIDTH 623 0
DWIDTH 12 0
BBX 8 14 2 0
BITMAP
ff
ff
80
80
80
f8
1e
0f
07
07
07
87
8e
f8
ENDCHAR
STARTCHAR six
ENCODING 54
SWIDTH 623 0
DWIDTH 12 0
BBX 10 14 1 0
BITMAP
1f80
3880
7080
6000
e000
ef00
f380
e1c0
e1c0
e1c0
61c0
61c0
3380
1f00
ENDCHAR
STARTCHAR seven
ENCODING 55
SWIDTH 623 0
DWIDTH 12 0
BBX 9 14 2 0
BITMAP
ff80
ff80
ff80
0100
0200
0600
0400
0c00
1800
1800
3000
3000
7000
7000
ENDCHAR
STARTCHAR eight
ENCODING 56
SWIDTH 623 0
DWIDTH 12 0
BBX 10 14 1 0
BITMAP
3f00
7380
e1c0
e1c0
f180
7f00
1e00
3f80
63c0
e1c0
e1c0
e1c0
7380
3f00
ENDCHAR
STARTCHAR nine
ENCODING 57
SWIDTH 623 0
DWIDTH 12 0
BBX 10 14 1 0
BITMAP
3e00
7300
e180
e180
e1c0
e1c0
e1c0
73c0
3dc0
01c0
0180
4380
4700
7e00
ENDCHAR
STARTCHAR colon
ENCODING 58
SWIDTH 265 0
DWIDTH 5 0
BBX 3 10 1 0
BITMAP
e0
e0
e0
00
00
00
00
e0
e0
e0
ENDCHAR
STARTCHAR semicolon
ENCODING 59
SWIDTH 265 0
DWIDTH 5 0
BBX 3 14 1 -4
BITMAP
e0
e0
e0
00
00
00
00
e0
e0
e0
60
60
60
80
ENDCHAR
STARTCHAR less
ENCODING 60
SWIDTH 623 0
DWIDTH 12 0
BBX 10 12 -1 0
BITMAP
0040
00c0
0300
0c00
3000
c000
c000
3000
0c00
0300
00c0
0040
ENDCHAR
STARTCHAR equal
ENCODING 61
SWIDTH 623 0
DWIDTH 12 0
BBX 11 5 0 3
BITMAP
ffe0
0000
0000
0000
ffe0
ENDCHAR
STARTCHAR greater
ENCODING 62
SWIDTH 623 0
DWIDTH 12 0
BBX 10 12 0 0
BITMAP
8000
c000
3000
0c00
0300
00c0
00c0
0300
0c00
3000
c000
8000
ENDCHAR
STARTCHAR question
ENCODING 63
SWIDTH 505 0
DWIDTH 10 0
BBX 9 14 0 0
BITMAP
fe00
c700
8380
0380
0300
0200
0400
1800
3800
3800
0000
3800
3800
3800
ENDCHAR
STARTCHAR at
ENCODING 64
SWIDTH 861 0
DWIDTH 16 0
BBX 14 14 2 0
BITMAP
03e0
0c30
1008
2384
4464
4c44
98c4
98c4
99c8
9bd8
8ee0
4000
2080
1f00
ENDCHAR
STARTCHAR A
ENCODING 65
SWIDTH 795 0
DWIDTH 15 0
BBX 15 14 0 0
BITMAP
0100
0380
0380
03c0
05c0
05e0
08e0
08f0
1070
1ff0
2038
2038
601c
f07e
ENDCHAR
STARTCHAR B
ENCODING 66
SWIDTH 639 0
DWIDTH 12 0
BBX 10 14 1 0
BITMAP
ff00
73c0
71c0
71c0
71c0
7380
7e00
7300
7180
71c0
71c0
71c0
7380
ff00
ENDCHAR
STARTCHAR C
ENCODING 67
SWIDTH 711 0
DWIDTH 13 0
BBX 12 14 1 0
BITMAP
0fe0
3c30
7010
7010
e000
e000
e000
e000
e000
e000
7000
7000
3c10
0fe0
ENDCHAR
STARTCHAR D
ENCODING 68
SWIDTH 794 0
DWIDTH 15 0
BBX 13 14 1 0
BITMAP
ff80
70e0
7070
7030
7038
7038
7038
7038
7038
7038
7030
7070
70e0
ff80
ENDCHAR
STARTCHAR E
ENCODING 69
SWIDTH 601 0
DWIDTH 11 0
BBX 10 14 1 0
BITMAP
ff80
7080
7080
7000
7000
7100
7f00
7100
7000
7000
7000
7040
70c0
ffc0
ENDCHAR
STARTCHAR F
ENCODING 70
SWIDTH 584 0
DWIDTH 11 0
BBX 9 14 1 0
BITMAP
ff80
7080
7080
7000
7000
7100
7f00
7100
7000
7000
7000
7000
7000
fc00
ENDCHAR
STARTCHAR G
ENCODING 71
SWIDTH 753 0
DWIDTH 14 0
BBX 13 14 1 0
BITMAP
0ff0
3c30
7010
7000
e000
e000
e000
e000
e0f8
e070
7070
7070
3870
0ff0
ENDCHAR
STARTCHAR H
ENCODING 72
SWIDTH 798 0
DWIDTH 15 0
BBX 13 14 1 0
BITMAP
f8f8
7070
7070
7070
7070
7070
7ff0
7070
7070
7070
7070
7070
7070
f8f8
ENDCHAR
STARTCHAR I
ENCODING 73
SWIDTH 349 0
DWIDTH 7 0
BBX 5 14 1 0
BITMAP
f8
70
70
70
70
70
70
70
70
70
70
70
70
f8
ENDCHAR
STARTCHAR J
ENCODING 74
SWIDTH 452 0
DWIDTH 9 0
BBX 8 18 0 -4
BITMAP
1f
0e
0e
0e
0e
0e
0e
0e
0e
0e
0e
0e
0e
0e
0e
8e
9c
f8
ENDCHAR
STARTCHAR K
ENCODING 75
SWIDTH 747 0
DWIDTH 14 0
BBX 14 14 0 0
BITMAP
f8f8
7020
7040
7180
7300
7600
7e00
7f00
7780
73c0
71e0
71e0
70f8
f9fc
ENDCHAR
STARTCHAR L
ENCODING 76
SWIDTH 584 0
DWIDTH 11 0
BBX 10 14 1 0
BITMAP
f800
7000
7000
7000
7000
7000
7000
7000
7000
7000
7000
7040
7040
ffc0
ENDCHAR
STARTCHAR M
ENCODING 77
SWIDTH 904 0
DWIDTH 17 0
BBX 16 14 1 0
BITMAP
f81f
781c
783c
5c3c
5c3c
5e5c
4e5c
4e9c
479c
479c
471c
431c
401c
e03f
ENDCHAR
STARTCHAR N
ENCODING 78
SWIDTH 788 0
DWIDTH 15 0
BBX 13 14 1 0
BITMAP
f038
7010
7810
7c10
5e10
5e10
4f10
4790
4390
41d0
41f0
40f0
4070
e030
ENDCHAR
STARTCHAR O
ENCODING 79
SWIDTH 810 0
DWIDTH 15 0
BBX 14 14 1 0
BITMAP
0fc0
3870
7038
7038
e01c
e01c
e01c
e01c
e01c
e01c
7038
7038
3870
0fc0
ENDCHAR
STARTCHAR P
ENCODING 80
SWIDTH 614 0
DWIDTH 12 0
BBX 10 14 1 0
BITMAP
ff00
7180
71c0
71c0
71c0
71c0
7380
7e00
7000
7000
7000
7000
7000
fc00
ENDCHAR
STARTCHAR Q
ENCODING 81
SWIDTH 810 0
DWIDTH 15 0
BBX 16 18 1 -4
BITMAP
0fc0
3870
7038
7038
e01c
e01c
e01c
e01c
e01c
e01c
7038
7038
3870
0fc0
0070
003c
001f
0004
ENDCHAR
STARTCHAR R
ENCODING 82
SWIDTH 720 0
DWIDTH 14 0
BBX 13 14 1 0
BITMAP
ff00
7180
71c0
71c0
71c0
71c0
7380
7f00
7700
7380
73c0
71e0
70f0
f8f8
ENDCHAR
STARTCHAR S
ENCODING 83
SWIDTH 556 0
DWIDTH 11 0
BBX 9 14 1 0
BITMAP
3f00
7100
e100
e000
f000
f800
7e00
1f00
0780
0380
0380
8380
c700
fe00
ENDCHAR
STARTCHAR T
ENCODING 84
SWIDTH 714 0
DWIDTH 14 0
BBX 13 14 0 0
BITMAP
fff8
c708
8708
0700
0700
0700
0700
0700
0700
0700
0700
0700
0700
1fc0
ENDCHAR
STARTCHAR U
ENCODING 85
SWIDTH 747 0
DWIDTH 14 0
BBX 14 14 0 0
BITMAP
f83c
7010
7010
7010
7010
7010
7010
7010
7010
7010
7010
7030
3820
1fc0
ENDCHAR
STARTCHAR V
ENCODING 86
SWIDTH 753 0
DWIDTH 14 0
BBX 14 14 0 0
BITMAP
fc3c
7818
3810
3810
1c20
1c20
1e60
0e40
0e40
0780
0780
0380
0300
0300
ENDCHAR
STARTCHAR W
ENCODING 87
SWIDTH 955 0
DWIDTH 18 0
BBX 18 14 0 0
BITMAP
f843c0
706080
78e100
38e100
38f100
397200
3d7200
1d7a00
1e3c00
1e3c00
0e3c00
0c1c00
0c1800
0c1800
ENDCHAR
STARTCHAR X
ENCODING 88
SWIDTH 702 0
DWIDTH 13 0
BBX 13 14 0 0
BITMAP
fc78
7830
3c20
1c40
1ec0
0e80
0f00
0780
0b80
19c0
11e0
20e0
60f0
f1f8
ENDCHAR
STARTCHAR Y
ENCODING 89
SWIDTH 717 0
DWIDTH 14 0
BBX 13 14 0 0
BITMAP
fc38
7030
3820
3c60
1c40
1e80
0f80
0700
0700
0700
0700
0700
0700
1f80
ENDCHAR
STARTCHAR Z
ENCODING 90
SWIDTH 639 0
DWIDTH 12 0
BBX 10 14 1 0
BITMAP
7fc0
43c0
4380
0780
0700
0f00
0e00
1c00
3c00
3800
7800
7040
f0c0
ffc0
ENDCHAR
STARTCHAR bracketleft
ENCODING 91
SWIDTH 327 0
DWIDTH 6 0
BBX 5 18 1 -4
BITMAP
f8
e0
e0
e0
e0
e0
e0
e0
e0
e0
e0
e0
e0
e0
e0
e0
e0
f8
ENDCHAR
STARTCHAR backslash
ENCODING 92
SWIDTH 527 0
DWIDTH 10 0
BBX 10 18 0 -4
BITMAP
c000
4000
6000
2000
2000
1000
1000
0800
0800
0400
0400
0200
0200
0100
0100
0080
0080
0040
ENDCHAR
STARTCHAR bracketright
ENCODING 93
SWIDTH 327 0
DWIDTH 6 0
BBX 5 18 0 -4
BITMAP
f8
38
38
38
38
38
38
38
38
38
38
38
38
38
38
38
38
f8
ENDCHAR
STARTCHAR asciicircum
ENCODING 94
SWIDTH 623 0
DWIDTH 12 0
BBX 11 12 0 2
BITMAP
0400
0400
0400
0a00
0a00
1100
1100
2080
2080
4040
4040
c060
ENDCHAR
STARTCHAR underscore
ENCODING 95
SWIDTH 500 0
DWIDTH 9 0
BBX 8 1 1 -2
BITMAP
ff
ENDCHAR
STARTCHAR grave
ENCODING 96
SWIDTH 617 0
DWIDTH 12 0
BBX 5 3 3 11
BITMAP
e0
30
18
ENDCHAR
STARTCHAR a
ENCODING 97
SWIDTH 556 0
DWIDTH 11 0
BBX 10 10 0 0
BITMAP
3e00
6380
4380
0380
3f80
f380
e380
e380
e380
7dc0
ENDCHAR
STARTCHAR b
ENCODING 98
SWIDTH 640 0
DWIDTH 12 0
BBX 11 14 0 0
BITMAP
f000
7000
7000
7000
7380
77c0
79e0
70e0
70e0
70e0
70e0
70c0
79c0
7f80
ENDCHAR
STARTCHAR c
ENCODING 99
SWIDTH 541 0
DWIDTH 10 0
BBX 9 10 0 0
BITMAP
1f80
7080
6080
e000
e000
e000
e000
7000
7880
1f80
ENDCHAR
STARTCHAR d
ENCODING 100
SWIDTH 652 0
DWIDTH 12 0
BBX 11 14 1 0
BITMAP
07c0
01c0
01c0
01c0
3dc0
73c0
61c0
e1c0
e1c0
e1c0
e1c0
f3c0
7dc0
39e0
ENDCHAR
STARTCHAR e
ENCODING 101
SWIDTH 568 0
DWIDTH 11 0
BBX 9 10 1 0
BITMAP
1e00
6300
6380
e380
ff80
e000
e000
7000
7880
1f80
ENDCHAR
STARTCHAR f
ENCODING 102
SWIDTH 416 0
DWIDTH 8 0
BBX 9 14 0 0
BITMAP
1f80
3880
3880
3800
ff00
3800
3800
3800
3800
3800
3800
3800
3800
fc00
ENDCHAR
STARTCHAR g
ENCODING 103
SWIDTH 599 0
DWIDTH 11 0
BBX 11 14 0 -4
BITMAP
1fe0
3360
7380
7380
7380
3300
1e00
3000
7f80
3fc0
61c0
e1c0
f380
3f00
ENDCHAR
STARTCHAR h
ENCODING 104
SWIDTH 654 0
DWIDTH 12 0
BBX 12 14 0 0
BITMAP
f800
3800
3800
3800
39c0
3be0
3ce0
38e0
38e0
38e0
38e0
38e0
38e0
fdf0
ENDCHAR
STARTCHAR i
ENCODING 105
SWIDTH 325 0
DWIDTH 6 0
BBX 6 14 0 0
BITMAP
38
38
38
00
f8
38
38
38
38
38
38
38
38
fc
ENDCHAR
STARTCHAR j
ENCODING 106
SWIDTH 355 0
DWIDTH 7 0
BBX 6 18 0 -4
BITMAP
1c
1c
1c
00
3c
1c
1c
1c
1c
1c
1c
1c
1c
1c
1c
9c
9c
f8
ENDCHAR
STARTCHAR k
ENCODING 107
SWIDTH 654 0
DWIDTH 12 0
BBX 12 14 0 0
BITMAP
f800
3800
3800
3800
38e0
38c0
3980
3900
3b00
3f80
3b80
3bc0
39e0
fcf0
ENDCHAR
STARTCHAR l
ENCODING 108
SWIDTH 325 0
DWIDTH 6 0
BBX 6 14 0 0
BITMAP
f8
38
38
38
38
38
38
38
38
38
38
38
38
fc
ENDCHAR
STARTCHAR m
ENCODING 109
SWIDTH 967 0
DWIDTH 18 0
BBX 18 10 0 0
BITMAP
fbcf00
3fff80
3cf380
38e380
38e380
38e380
38e380
38e380
38e380
fdf7c0
ENDCHAR
STARTCHAR n
ENCODING 110
SWIDTH 654 0
DWIDTH 12 0
BBX 12 10 0 0
BITMAP
f9c0
7be0
3ce0
38e0
38e0
38e0
38e0
38e0
38e0
fdf0
ENDCHAR
STARTCHAR o
ENCODING 111
SWIDTH 617 0
DWIDTH 12 0
BBX 11 10 0 0
BITMAP
1f00
71c0
60c0
e0e0
e0e0
e0e0
e0e0
60c0
71c0
1f00
ENDCHAR
STARTCHAR p
ENCODING 112
SWIDTH 652 0
DWIDTH 12 0
BBX 11 14 0 -4
BITMAP
f380
77c0
79e0
70e0
70e0
70e0
70e0
70c0
79c0
7780
7000
7000
7000
f800
ENDCHAR
STARTCHAR q
ENCODING 113
SWIDTH 640 0
DWIDTH 12 0
BBX 11 14 1 -4
BITMAP
3dc0
73c0
61c0
e1c0
e1c0
e1c0
e1c0
f3c0
7dc0
39c0
01c0
01c0
01c0
07e0
ENDCHAR
STARTCHAR r
ENCODING 114
SWIDTH 462 0
DWIDTH 9 0
BBX 9 10 0 0
BITMAP
f980
3f80
3c80
3800
3800
3800
3800
3800
3800
fe00
ENDCHAR
STARTCHAR s
ENCODING 115
SWIDTH 525 0
DWIDTH 10 0
BBX 8 10 1 0
BITMAP
3e
e2
e2
f0
fe
7f
0f
87
87
fc
ENDCHAR
STARTCHAR t
ENCODING 116
SWIDTH 389 0
DWIDTH 7 0
BBX 6 13 1 0
BITMAP
30
70
70
fc
70
70
70
70
70
70
70
70
3c
ENDCHAR
STARTCHAR u
ENCODING 117
SWIDTH 654 0
DWIDTH 12 0
BBX 11 10 1 0
BITMAP
f7c0
71c0
71c0
71c0
71c0
71c0
71c0
73c0
7dc0
39e0
ENDCHAR
STARTCHAR v
ENCODING 118
SWIDTH 657 0
DWIDTH 12 0
BBX 12 10 0 0
BITMAP
f8f0
7860
3840
3840
1c80
1d80
0f00
0f00
0600
0600
ENDCHAR
STARTCHAR w
ENCODING 119
SWIDTH 880 0
DWIDTH 17 0
BBX 17 10 0 0
BITMAP
f84780
70e300
78e200
39f200
397400
1f7400
1e3c00
1e3800
0c3800
0c1000
ENDCHAR
STARTCHAR x
ENCODING 120
SWIDTH 608 0
DWIDTH 12 0
BBX 12 10 0 0
BITMAP
fcf0
7840
3c80
1f00
0f00
0f00
1f80
13c0
61e0
f3f0
ENDCHAR
STARTCHAR y
ENCODING 121
SWIDTH 654 0
DWIDTH 12 0
BBX 12 14 0 -4
BITMAP
fcf0
7020
3840
3840
1c80
1c80
1f00
0f00
0e00
0600
0400
0800
1800
3000
ENDCHAR
STARTCHAR z
ENCODING 122
SWIDTH 584 0
DWIDTH 11 0
BBX 9 10 1 0
BITMAP
ff80
c780
8f00
0e00
1e00
3c00
7800
7080
f080
ff80
ENDCHAR
STARTCHAR braceleft
ENCODING 123
SWIDTH 366 0
DWIDTH 7 0
BBX 5 18 1 -4
BITMAP
38
70
70
70
70
70
70
70
e0
60
70
70
70
70
70
70
70
38
ENDCHAR
STARTCHAR bar
ENCODING 124
SWIDTH 259 0
DWIDTH 5 0
BBX 1 18 2 -4
BITMAP
80
80
80
80
80
80
80
80
80
80
80
80
80
80
80
80
80
80
ENDCHAR
STARTCHAR braceright
ENCODING 125
SWIDTH 366 0
DWIDTH 7 0
BBX 5 18 1 -4
BITMAP
e0
70
70
70
70
70
70
70
38
30
70
70
70
70
70
70
70
e0
ENDCHAR
STARTCHAR asciitilde
ENCODING 126
SWIDTH 623 0
DWIDTH 12 0
BBX 11 4 0 3
BITMAP
7020
4c20
8640
81c0
ENDCHAR
STARTCHAR nobreakspace
ENCODING 160
SWIDTH 333 0
DWIDTH 6 0
BBX 1 1 0 0
BITMAP
00
ENDCHAR
STARTCHAR Aogonek
ENCODING 161
SWIDTH 795 0
DWIDTH 15 0
BBX 15 17 0 -3
BITMAP
0100
0380
0380
03c0
05c0
05e0
08e0
08f0
1070
1ff0
2038
2038
601c
f07e
0100
0200
0380
ENDCHAR
STARTCHAR breve
ENCODING 162
SWIDTH 617 0
DWIDTH 12 0
BBX 7 3 2 11
BITMAP
82
7c
38
ENDCHAR
STARTCHAR Lstroke
ENCODING 163
SWIDTH 584 0
DWIDTH 11 0
BBX 11 14 0 0
BITMAP
fc00
3800
3800
3800
3a00
3c00
3800
f800
b800
3800
3800
3820
3820
ffe0
ENDCHAR
STARTCHAR currency
ENCODING 164
SWIDTH 623 0
DWIDTH 12 0
BBX 12 12 0 1
BITMAP
8010
4020
3fc0
39c0
30c0
2040
2040
30c0
39c0
3fc0
4020
8010
ENDCHAR
STARTCHAR Lcaron
ENCODING 165
SWIDTH 584 0
DWIDTH 11 0
BBX 10 15 1 0
BITMAP
0380
fb80
7180
7180
7300
7000
7000
7000
7000
7000
7000
7000
7040
7040
ffc0
ENDCHAR
STARTCHAR Sacute
ENCODING 166
SWIDTH 556 0
DWIDTH 11 0
BBX 9 18 1 0
BITMAP
0700
0c00
1800
0000
3f00
7100
e100
e000
f000
f800
7e00
1f00
0780
0380
0380
8380
c700
fe00
ENDCHAR
STARTCHAR section
ENCODING 167
SWIDTH 623 0
DWIDTH 12 0
BBX 9 18 2 -4
BITMAP
3f00
7100
e100
e000
f000
7e00
3f00
cf80
c380
e180
f980
7f00
3f00
0f80
0380
8380
c700
fe00
ENDCHAR
STARTCHAR diaeresis
ENCODING 168
SWIDTH 617 0
DWIDTH 12 0
BBX 6 2 3 12
BITMAP
cc
cc
ENDCHAR
STARTCHAR Scaron
ENCODING 169
SWIDTH 556 0
DWIDTH 11 0
BBX 9 18 1 0
BITMAP
6600
3c00
1800
0000
3f00
7100
e100
e000
f000
f800
7e00
1f00
0780
0380
0380
8380
c700
fe00
ENDCHAR
STARTCHAR Scedilla
ENCODING 170
SWIDTH 556 0
DWIDTH 11 0
BBX 9 18 1 -4
BITMAP
3f00
7100
e100
e000
f000
f800
7e00
1f00
0780
0380
0380
8380
c700
fe00
0800
1c00
0c00
1c00
ENDCHAR
STARTCHAR Tcaron
ENCODING 171
SWIDTH 714 0
DWIDTH 14 0
BBX 13 18 0 0
BITMAP
0cc0
0780
0300
0000
fff8
c708
8708
0700
0700
0700
0700
0700
0700
0700
0700
0700
0700
1fc0
ENDCHAR
STARTCHAR Zacute
ENCODING 172
SWIDTH 639 0
DWIDTH 12 0
BBX 10 18 1 0
BITMAP
01c0
0300
0600
0000
7fc0
43c0
4380
0780
0700
0f00
0e00
1c00
3c00
3800
7800
7040
f0c0
ffc0
ENDCHAR
STARTCHAR hyphen
ENCODING 173
SWIDTH 289 0
DWIDTH 5 0
BBX 4 2 1 5
BITMAP
f0
f0
ENDCHAR
STARTCHAR Zcaron
ENCODING 174
SWIDTH 639 0
DWIDTH 12 0
BBX 10 18 1 0
BITMAP
1980
0f00
0600
0000
7fc0
43c0
4380
0780
0700
0f00
0e00
1c00
3c00
3800
7800
7040
f0c0
ffc0
ENDCHAR
STARTCHAR Zabovedot
ENCODING 175
SWIDTH 639 0
DWIDTH 12 0
BBX 10 18 1 0
BITMAP
0600
0600
0600
0000
7fc0
43c0
4380
0780
0700
0f00
0e00
1c00
3c00
3800
7800
7040
f0c0
ffc0
ENDCHAR
STARTCHAR degree
ENCODING 176
SWIDTH 259 0
DWIDTH 5 0
BBX 3 3 1 11
BITMAP
e0
a0
e0
ENDCHAR
STARTCHAR aogonek
ENCODING 177
SWIDTH 556 0
DWIDTH 11 0
BBX 10 13 0 -3
BITMAP
3e00
6380
4380
0380
3f80
f380
e380
e380
e380
7dc0
0800
1000
1c00
ENDCHAR
STARTCHAR ogonek
ENCODING 178
SWIDTH 617 0
DWIDTH 12 0
BBX 3 3 5 -4
BITMAP
40
80
e0
ENDCHAR
STARTCHAR lstroke
ENCODING 179
SWIDTH 325 0
DWIDTH 6 0
BBX 7 14 0 0
BITMAP
f8
38
38
38
38
3e
38
78
b8
38
38
38
38
fe
ENDCHAR
STARTCHAR acute
ENCODING 180
SWIDTH 617 0
DWIDTH 12 0
BBX 5 3 4 11
BITMAP
38
60
c0
ENDCHAR
STARTCHAR lcaron
ENCODING 181
SWIDTH 473 0
DWIDTH 9 0
BBX 9 15 0 0
BITMAP
0380
fb80
3980
3980
3b00
3800
3800
3800
3800
3800
3800
3800
3800
3800
fc00
ENDCHAR
STARTCHAR sacute
ENCODING 182
SWIDTH 525 0
DWIDTH 10 0
BBX 8 14 1 0
BITMAP
07
0c
18
00
3e
e2
e2
f0
fe
7f
0f
87
87
fc
ENDCHAR
STARTCHAR caron
ENCODING 183
SWIDTH 617 0
DWIDTH 12 0
BBX 6 3 3 11
BITMAP
cc
78
30
ENDCHAR
STARTCHAR cedilla
ENCODING 184
SWIDTH 617 0
DWIDTH 12 0
BBX 3 4 5 -4
BITMAP
40
e0
60
e0
ENDCHAR
STARTCHAR scaron
ENCODING 185
SWIDTH 525 0
DWIDTH 10 0
BBX 8 14 1 0
BITMAP
66
3c
18
00
3e
e2
e2
f0
fe
7f
0f
87
87
fc
ENDCHAR
STARTCHAR scedilla
ENCODING 186
SWIDTH 525 0
DWIDTH 10 0
BBX 8 14 1 -4
BITMAP
3e
e2
e2
f0
fe
7f
0f
87
87
fc
10
38
18
38
ENDCHAR
STARTCHAR tcaron
ENCODING 187
SWIDTH 473 0
DWIDTH 9 0
BBX 8 16 1 0
BITMAP
07
07
03
33
76
70
fc
70
70
70
70
70
70
70
70
3c
ENDCHAR
STARTCHAR zacute
ENCODING 188
SWIDTH 584 0
DWIDTH 11 0
BBX 9 14 1 0
BITMAP
0380
0600
0c00
0000
ff80
c780
8f00
0e00
1e00
3c00
7800
7080
f080
ff80
ENDCHAR
STARTCHAR doubleacute
ENCODING 189
SWIDTH 617 0
DWIDTH 12 0
BBX 7 3 3 11
BITMAP
36
68
90
ENDCHAR
STARTCHAR zcaron
ENCODING 190
SWIDTH 584 0
DWIDTH 11 0
BBX 9 14 1 0
BITMAP
3300
1e00
0c00
0000
ff80
c780
8f00
0e00
1e00
3c00
7800
7080
f080
ff80
ENDCHAR
STARTCHAR zabovedot
ENCODING 191
SWIDTH 584 0
DWIDTH 11 0
BBX 9 14 1 0
BITMAP
0c00
0c00
0c00
0000
ff80
c780
8f00
0e00
1e00
3c00
7800
7080
f080
ff80
ENDCHAR
STARTCHAR Racute
ENCODING 192
SWIDTH 720 0
DWIDTH 14 0
BBX 13 18 1 0
BITMAP
0380
0600
0c00
0000
ff00
7180
71c0
71c0
71c0
71c0
7380
7f00
7700
7380
73c0
71e0
70f0
f8f8
ENDCHAR
STARTCHAR Aacute
ENCODING 193
SWIDTH 795 0
DWIDTH 15 0
BBX 15 18 0 0
BITMAP
00e0
0180
0300
0000
0100
0380
0380
03c0
05c0
05e0
08e0
08f0
1070
1ff0
2038
2038
601c
f07e
ENDCHAR
STARTCHAR Acircumflex
ENCODING 194
SWIDTH 795 0
DWIDTH 15 0
BBX 15 18 0 0
BITMAP
0180
03c0
0660
0000
0100
0380
0380
03c0
05c0
05e0
08e0
08f0
1070
1ff0
2038
2038
601c
f07e
ENDCHAR
STARTCHAR Abreve
ENCODING 195
SWIDTH 795 0
DWIDTH 15 0
BBX 15 18 0 0
BITMAP
0820
07c0
0380
0000
0100
0380
0380
03c0
05c0
05e0
08e0
08f0
1070
1ff0
2038
2038
601c
f07e
ENDCHAR
STARTCHAR Adiaeresis
ENCODING 196
SWIDTH 795 0
DWIDTH 15 0
BBX 15 17 0 0
BITMAP
0660
0660
0000
0100
0380
0380
03c0
05c0
05e0
08e0
08f0
1070
1ff0
2038
2038
601c
f07e
ENDCHAR
STARTCHAR Lacute
ENCODING 197
SWIDTH 584 0
DWIDTH 11 0
BBX 10 18 1 0
BITMAP
0e00
1800
3000
0000
f800
7000
7000
7000
7000
7000
7000
7000
7000
7000
7000
7040
7040
ffc0
ENDCHAR
STARTCHAR Cacute
ENCODING 198
SWIDTH 711 0
DWIDTH 13 0
BBX 12 18 1 0
BITMAP
00e0
0180
0300
0000
0fe0
3c30
7010
7010
e000
e000
e000
e000
e000
e000
7000
7000
3c10
0fe0
ENDCHAR
STARTCHAR Ccedilla
ENCODING 199
SWIDTH 711 0
DWIDTH 13 0
BBX 12 18 1 -4
BITMAP
0fe0
3c30
7010
7010
e000
e000
e000
e000
e000
e000
7000
7000
3c10
0fe0
0200
0700
0300
0700
ENDCHAR
STARTCHAR Ccaron
ENCODING 200
SWIDTH 711 0
DWIDTH 13 0
BBX 12 18 1 0
BITMAP
0cc0
0780
0300
0000
0fe0
3c30
7010
7010
e000
e000
e000
e000
e000
e000
7000
7000
3c10
0fe0
ENDCHAR
STARTCHAR Eacute
ENCODING 201
SWIDTH 601 0
DWIDTH 11 0
BBX 10 18 1 0
BITMAP
0700
0c00
1800
0000
ff80
7080
7080
7000
7000
7100
7f00
7100
7000
7000
7000
7040
70c0
ffc0
ENDCHAR
STARTCHAR Eogonek
ENCODING 202
SWIDTH 601 0
DWIDTH 11 0
BBX 10 17 1 -3
BITMAP
ff80
7080
7080
7000
7000
7100
7f00
7100
7000
7000
7000
7040
70c0
ffc0
0800
1000
1c00
ENDCHAR
STARTCHAR Ediaeresis
ENCODING 203
SWIDTH 601 0
DWIDTH 11 0
BBX 10 17 1 0
BITMAP
3300
3300
0000
ff80
7080
7080
7000
7000
7100
7f00
7100
7000
7000
7000
7040
70c0
ffc0
ENDCHAR
STARTCHAR Ecaron
ENCODING 204
SWIDTH 601 0
DWIDTH 11 0
BBX 10 18 1 0
BITMAP
3300
1e00
0c00
0000
ff80
7080
7080
7000
7000
7100
7f00
7100
7000
7000
7000
7040
70c0
ffc0
ENDCHAR
STARTCHAR Iacute
ENCODING 205
SWIDTH 349 0
DWIDTH 7 0
BBX 6 18 1 0
BITMAP
1c
30
60
00
f8
70
70
70
70
70
70
70
70
70
70
70
70
f8
ENDCHAR
STARTCHAR Icircumflex
ENCODING 206
SWIDTH 349 0
DWIDTH 7 0
BBX 6 18 2 0
BITMAP
30
78
cc
00
7c
38
38
38
38
38
38
38
38
38
38
38
38
7c
ENDCHAR
STARTCHAR Dcaron
ENCODING 207
SWIDTH 794 0
DWIDTH 15 0
BBX 13 18 1 0
BITMAP
1980
0f00
0600
0000
ff80
70e0
7070
7030
7038
7038
7038
7038
7038
7038
7030
7070
70e0
ff80
ENDCHAR
STARTCHAR Dstroke
ENCODING 208
SWIDTH 794 0
DWIDTH 15 0
BBX 14 14 0 0
BITMAP
ffc0
3870
3838
3818
381c
381c
ff1c
381c
381c
381c
3818
3838
3870
ffc0
ENDCHAR
STARTCHAR Nacute
ENCODING 209
SWIDTH 788 0
DWIDTH 15 0
BBX 13 18 1 0
BITMAP
00e0
0180
0300
0000
f038
7010
7810
7c10
5e10
5e10
4f10
4790
4390
41d0
41f0
40f0
4070
e030
ENDCHAR
STARTCHAR Ncaron
ENCODING 210
SWIDTH 788 0
DWIDTH 15 0
BBX 13 18 1 0
BITMAP
0cc0
0780
0300
0000
f038
7010
7810
7c10
5e10
5e10
4f10
4790
4390
41d0
41f0
40f0
4070
e030
ENDCHAR
STARTCHAR Oacute
ENCODING 211
SWIDTH 810 0
DWIDTH 15 0
BBX 14 18 1 0
BITMAP
01c0
0300
0600
0000
0fc0
3870
7038
7038
e01c
e01c
e01c
e01c
e01c
e01c
7038
7038
3870
0fc0
ENDCHAR
STARTCHAR Ocircumflex
ENCODING 212
SWIDTH 810 0
DWIDTH 15 0
BBX 14 18 1 0
BITMAP
0300
0780
0cc0
0000
0fc0
3870
7038
7038
e01c
e01c
e01c
e01c
e01c
e01c
7038
7038
3870
0fc0
ENDCHAR
STARTCHAR Odoubleacute
ENCODING 213
SWIDTH 810 0
DWIDTH 15 0
BBX 14 18 1 0
BITMAP
01b0
0340
0480
0000
0fc0
3870
7038
7038
e01c
e01c
e01c
e01c
e01c
e01c
7038
7038
3870
0fc0
ENDCHAR
STARTCHAR Odiaeresis
ENCODING 214
SWIDTH 810 0
DWIDTH 15 0
BBX 14 17 1 0
BITMAP
0cc0
0cc0
0000
0fc0
3870
7038
7038
e01c
e01c
e01c
e01c
e01c
e01c
7038
7038
3870
0fc0
ENDCHAR
STARTCHAR multiply
ENCODING 215
SWIDTH 623 0
DWIDTH 12 0
BBX 11 12 0 0
BITMAP
c020
4060
2080
1100
1b00
0e00
0e00
1b00
1100
2080
c040
8060
ENDCHAR
STARTCHAR Rcaron
ENCODING 216
SWIDTH 720 0
DWIDTH 14 0
BBX 13 18 1 0
BITMAP
3300
1e00
0c00
0000
ff00
7180
71c0
71c0
71c0
71c0
7380
7f00
7700
7380
73c0
71e0
70f0
f8f8
ENDCHAR
STARTCHAR Uring
ENCODING 217
SWIDTH 747 0
DWIDTH 14 0
BBX 14 18 0 0
BITMAP
0700
0500
0700
0000
f83c
7010
7010
7010
7010
7010
7010
7010
7010
7010
7010
7030
3820
1fc0
ENDCHAR
STARTCHAR Uacute
ENCODING 218
SWIDTH 747 0
DWIDTH 14 0
BBX 14 18 0 0
BITMAP
01c0
0300
0600
0000
f83c
7010
7010
7010
7010
7010
7010
7010
7010
7010
7010
7030
3820
1fc0
ENDCHAR
STARTCHAR Udoubleacute
ENCODING 219
SWIDTH 747 0
DWIDTH 14 0
BBX 14 18 0 0
BITMAP
01b0
0340
0480
0000
f83c
7010
7010
7010
7010
7010
7010
7010
7010
7010
7010
7030
3820
1fc0
ENDCHAR
STARTCHAR Udiaeresis
ENCODING 220
SWIDTH 747 0
DWIDTH 14 0
BBX 14 17 0 0
BITMAP
0cc0
0cc0
0000
f83c
7010
7010
7010
7010
7010
7010
7010
7010
7010
7010
7030
3820
1fc0
ENDCHAR
STARTCHAR Yacute
ENCODING 221
SWIDTH 717 0
DWIDTH 14 0
BBX 13 18 0 0
BITMAP
01c0
0300
0600
0000
fc38
7030
3820
3c60
1c40
1e80
0f80
0700
0700
0700
0700
0700
0700
1f80
ENDCHAR
STARTCHAR Tcedilla
ENCODING 222
SWIDTH 714 0
DWIDTH 14 0
BBX 13 18 0 -4
BITMAP
fff8
c708
8708
0700
0700
0700
0700
0700
0700
0700
0700
0700
0700
1fc0
0200
0700
0300
0700
ENDCHAR
STARTCHAR ssharp
ENCODING 223
SWIDTH 700 0
DWIDTH 13 0
BBX 12 14 1 0
BITMAP
1f80
31c0
71c0
7180
7300
7200
7700
7780
73e0
71f0
70f0
7270
7270
fbe0
ENDCHAR
STARTCHAR racute
ENCODING 224
SWIDTH 462 0
DWIDTH 9 0
BBX 9 14 0 0
BITMAP
0380
0600
0c00
0000
f980
3f80
3c80
3800
3800
3800
3800
3800
3800
fe00
ENDCHAR
STARTCHAR aacute
ENCODING 225
SWIDTH 556 0
DWIDTH 11 0
BBX 10 14 0 0
BITMAP
0700
0c00
1800
0000
3e00
6380
4380
0380
3f80
f380
e380
e380
e380
7dc0
ENDCHAR
STARTCHAR acircumflex
ENCODING 226
SWIDTH 556 0
DWIDTH 11 0
BBX 10 14 0 0
BITMAP
0c00
1e00
3300
0000
3e00
6380
4380
0380
3f80
f380
e380
e380
e380
7dc0
ENDCHAR
STARTCHAR abreve
ENCODING 227
SWIDTH 556 0
DWIDTH 11 0
BBX 10 14 0 0
BITMAP
4100
3e00
1c00
0000
3e00
6380
4380
0380
3f80
f380
e380
e380
e380
7dc0
ENDCHAR
STARTCHAR adiaeresis
ENCODING 228
SWIDTH 556 0
DWIDTH 11 0
BBX 10 13 0 0
BITMAP
3300
3300
0000
3e00
6380
4380
0380
3f80
f380
e380
e380
e380
7dc0
ENDCHAR
STARTCHAR lacute
ENCODING 229
SWIDTH 325 0
DWIDTH 6 0
BBX 7 18 0 0
BITMAP
0e
18
30
00
f8
38
38
38
38
38
38
38
38
38
38
38
38
fc
ENDCHAR
STARTCHAR cacute
ENCODING 230
SWIDTH 541 0
DWIDTH 10 0
BBX 9 14 0 0
BITMAP
0380
0600
0c00
0000
1f80
7080
6080
e000
e000
e000
e000
7000
7880
1f80
ENDCHAR
STARTCHAR ccedilla
ENCODING 231
SWIDTH 541 0
DWIDTH 10 0
BBX 9 14 0 -4
BITMAP
1f80
7080
6080
e000
e000
e000
e000
7000
7880
1f80
0800
1c00
0c00
1c00
ENDCHAR
STARTCHAR ccaron
ENCODING 232
SWIDTH 541 0
DWIDTH 10 0
BBX 9 14 0 0
BITMAP
3300
1e00
0c00
0000
1f80
7080
6080
e000
e000
e000
e000
7000
7880
1f80
ENDCHAR
STARTCHAR eacute
ENCODING 233
SWIDTH 568 0
DWIDTH 11 0
BBX 9 14 1 0
BITMAP
0700
0c00
1800
0000
1e00
6300
6380
e380
ff80
e000
e000
7000
7880
1f80
ENDCHAR
STARTCHAR eogonek
ENCODING 234
SWIDTH 568 0
DWIDTH 11 0
BBX 9 13 1 -3
BITMAP
1e00
6300
6380
e380
ff80
e000
e000
7000
7880
1f80
0800
1000
1c00
ENDCHAR
STARTCHAR ediaeresis
ENCODING 235
SWIDTH 568 0
DWIDTH 11 0
BBX 9 13 1 0
BITMAP
3300
3300
0000
1e00
6300
6380
e380
ff80
e000
e000
7000
7880
1f80
ENDCHAR
STARTCHAR ecaron
ENCODING 236
SWIDTH 568 0
DWIDTH 11 0
BBX 9 14 1 0
BITMAP
3300
1e00
0c00
0000
1e00
6300
6380
e380
ff80
e000
e000
7000
7880
1f80
ENDCHAR
STARTCHAR iacute
ENCODING 237
SWIDTH 325 0
DWIDTH 6 0
BBX 6 14 0 0
BITMAP
1c
30
60
00
f8
38
38
38
38
38
38
38
38
fc
ENDCHAR
STARTCHAR icircumflex
ENCODING 238
SWIDTH 325 0
DWIDTH 6 0
BBX 6 14 0 0
BITMAP
30
78
cc
00
f8
38
38
38
38
38
38
38
38
fc
ENDCHAR
STARTCHAR dcaron
ENCODING 239
SWIDTH 789 0
DWIDTH 15 0
BBX 14 15 1 0
BITMAP
001c
07dc
01cc
01cc
01d8
3dc0
73c0
61c0
e1c0
e1c0
e1c0
e1c0
f3c0
7dc0
39e0
ENDCHAR
STARTCHAR dstroke
ENCODING 240
SWIDTH 789 0
DWIDTH 15 0
BBX 14 14 1 0
BITMAP
07c0
01c0
1ffc
01c0
3dc0
73c0
61c0
e1c0
e1c0
e1c0
e1c0
f3c0
7dc0
39e0
ENDCHAR
STARTCHAR nacute
ENCODING 241
SWIDTH 654 0
DWIDTH 12 0
BBX 12 14 0 0
BITMAP
01c0
0300
0600
0000
f9c0
7be0
3ce0
38e0
38e0
38e0
38e0
38e0
38e0
fdf0
ENDCHAR
STARTCHAR ncaron
ENCODING 242
SWIDTH 654 0
DWIDTH 12 0
BBX 12 14 0 0
BITMAP
1980
0f00
0600
0000
f9c0
7be0
3ce0
38e0
38e0
38e0
38e0
38e0
38e0
fdf0
ENDCHAR
STARTCHAR oacute
ENCODING 243
SWIDTH 617 0
DWIDTH 12 0
BBX 11 14 0 0
BITMAP
0380
0600
0c00
0000
1f00
71c0
60c0
e0e0
e0e0
e0e0
e0e0
60c0
71c0
1f00
ENDCHAR
STARTCHAR ocircumflex
ENCODING 244
SWIDTH 617 0
DWIDTH 12 0
BBX 11 14 0 0
BITMAP
0c00
1e00
3300
0000
1f00
71c0
60c0
e0e0
e0e0
e0e0
e0e0
60c0
71c0
1f00
ENDCHAR
STARTCHAR odoubleacute
ENCODING 245
SWIDTH 617 0
DWIDTH 12 0
BBX 11 14 0 0
BITMAP
0360
0680
0900
0000
1f00
71c0
60c0
e0e0
e0e0
e0e0
e0e0
60c0
71c0
1f00
ENDCHAR
STARTCHAR odiaeresis
ENCODING 246
SWIDTH 617 0
DWIDTH 12 0
BBX 11 13 0 0
BITMAP
3300
3300
0000
1f00
71c0
60c0
e0e0
e0e0
e0e0
e0e0
60c0
71c0
1f00
ENDCHAR
STARTCHAR division
ENCODING 247
SWIDTH 623 0
DWIDTH 12 0
BBX 10 10 1 0
BITMAP
0c00
0c00
0000
0000
0000
ffc0
0000
0000
0c00
0c00
ENDCHAR
STARTCHAR rcaron
ENCODING 248
SWIDTH 462 0
DWIDTH 9 0
BBX 9 14 0 0
BITMAP
3300
1e00
0c00
0000
f980
3f80
3c80
3800
3800
3800
3800
3800
3800
fe00
ENDCHAR
STARTCHAR uring
ENCODING 249
SWIDTH 654 0
DWIDTH 12 0
BBX 11 14 1 0
BITMAP
1c00
1400
1c00
0000
f7c0
71c0
71c0
71c0
71c0
71c0
71c0
73c0
7dc0
39e0
ENDCHAR
STARTCHAR uacute
ENCODING 250
SWIDTH 654 0
DWIDTH 12 0
BBX 11 14 1 0
BITMAP
0380
0600
0c00
0000
f7c0
71c0
71c0
71c0
71c0
71c0
71c0
73c0
7dc0
39e0
ENDCHAR
STARTCHAR udoubleacute
ENCODING 251
SWIDTH 654 0
DWIDTH 12 0
BBX 11 14 1 0
BITMAP
06c0
0d00
1200
0000
f7c0
71c0
71c0
71c0
71c0
71c0
71c0
73c0
7dc0
39e0
ENDCHAR
STARTCHAR udiaeresis
ENCODING 252
SWIDTH 654 0
DWIDTH 12 0
BBX 11 13 1 0
BITMAP
1980
1980
0000
f7c0
71c0
71c0
71c0
71c0
71c0
71c0
73c0
7dc0
39e0
ENDCHAR
STARTCHAR yacute
ENCODING 253
SWIDTH 654 0
DWIDTH 12 0
BBX 12 18 0 -4
BITMAP
0380
0600
0c00
0000
fcf0
7020
3840
3840
1c80
1c80
1f00
0f00
0e00
0600
0400
0800
1800
3000
ENDCHAR
STARTCHAR tcedilla
ENCODING 254
SWIDTH 389 0
DWIDTH 7 0
BBX 6 17 1 -4
BITMAP
30
70
70
fc
70
70
70
70
70
70
70
70
3c
20
70
30
70
ENDCHAR
STARTCHAR abovedot
ENCODING 255
SWIDTH 617 0
DWIDTH 12 0
BBX 2 3 5 11
BITMAP
c0
c0
c0
ENDCHAR
ENDFONT
